<?xml version="1.0" encoding="utf-8"?>
<!-- Generator: Adobe Illustrator 21.0.0, SVG Export Plug-In . SVG Version: 6.00 Build 0)  -->
<svg version="1.1" id="Capa_1" xmlns="http://www.w3.org/2000/svg" xmlns:xlink="http://www.w3.org/1999/xlink" x="0px" y="0px"
	 width="205px" height="145px" viewBox="0 0 205 145" style="enable-background:new 0 0 205 145;" xml:space="preserve">
<style type="text/css">
	.st0{fill:#FFD012;}
</style>
<g>
	<path class="st0" d="M193.7,131.4h-3.6v-19.8c0-1.6-1.3-3-3-3h-19.1V64.8c0-0.8-0.4-1.6-1-2.2l-4.6-4.2V17.6c0-0.9-0.4-1.8-1.2-2.4
		L151.6,8c-0.9-0.7-2.1-0.8-3.1-0.3c-1,0.5-1.6,1.5-1.6,2.7v36.5l-4.4,5.3c-0.4,0.5-0.7,1.2-0.7,1.9v41.3h-3.2V74c0-1.6-1.3-3-3-3
		h-13.9V44.3c0-1.6-1.3-3-3-3h-14c-1.6,0-3,1.3-3,3v16.5h-2.8v-28c0-1.6-1.3-3-3-3H82c-1.6,0-3,1.3-3,3v56H67.5V51.6
		c0-1.6-1.3-3-3-3H51.3c-1.6,0-3,1.3-3,3v21.9h-8.3c-1.6,0-3,1.3-3,3v45h-3.7V90.2c0-1.6-1.3-3-3-3h-9.5c-1.6,0-3,1.3-3,3v41.1h-4.8
		c-1.6,0-3,1.3-3,3s1.3,3,3,3h7.7c1.6,0,3-1.3,3-3V93.2h3.6v31.3c0,1.6,1.3,3,3,3h6.6v2.1c0,1.6,1.3,3,3,3s3-1.3,3-3V79.5h5.3v3.6
		c0,1.6,1.3,3,3,3c1.6,0,3-1.3,3-3V54.6h7.2v34.2h-6.6c-1.6,0-3,1.3-3,3V120c0,1.6,1.3,3,3,3c1.6,0,3-1.3,3-3V94.7H79v11
		c0,1.6,1.3,3,3,3c1.6,0,3-1.3,3-3v-70h8v38.4c0,1.6,1.3,3,3,3c1.6,0,3-1.3,3-3v-7.4h5.8c1.6,0,3-1.3,3-3V47.2h8v23.8h-9.6
		c-1.6,0-3,1.3-3,3v18.6h-6.6c-1.6,0-3,1.3-3,3v23.8c0,1.6,1.3,3,3,3c1.6,0,3-1.3,3-3V98.6h14.3v36.9c0,1.6,1.3,3,3,3
		c1.6,0,3-1.3,3-3V95.6c0-1.6-1.3-3-3-3h-7.7V77h23.5v37.1c0,1.6,1.3,3,3,3s3-1.3,3-3v-12.7h3.2v4.4c0,1.6,1.3,3,3,3
		c1.6,0,3-1.3,3-3V55.2l4.4-5.3c0.4-0.5,0.7-1.2,0.7-1.9V16.3l3.7,2.7v40.6c0,0.8,0.4,1.6,1,2.2l4.6,4.2V120c0,1.6,1.3,3,3,3
		s3-1.3,3-3v-5.5h16.1v19.8c0,1.6,1.3,3,3,3h6.6c1.6,0,3-1.3,3-3C196.7,132.7,195.3,131.4,193.7,131.4z"/>
</g>
</svg>
